<?xml version="1.0" encoding="utf-8"?>
<!-- Generated by IcoMoon.io -->
<!DOCTYPE svg PUBLIC "-//W3C//DTD SVG 1.1//EN" "http://www.w3.org/Graphics/SVG/1.1/DTD/svg11.dtd">
<svg version="1.1" xmlns="http://www.w3.org/2000/svg" xmlns:xlink="http://www.w3.org/1999/xlink" width="362" height="50" viewBox="0 0 362 50">
<g transform="translate(0 0)">
	<path d="M12.5 34.375h15.625v3.125h-15.625zM12.5 28.125h15.625v3.125h-15.625zM12.5 12.5h15.625v12.5h-15.625zM46.875 6.25h-9.375v-6.25h-34.375c-1.727 0-3.125 1.399-3.125 3.125v43.75c0 1.727 1.398 3.125 3.125 3.125h43.75c1.727 0 3.125-1.398 3.125-3.125v-37.5c0-1.726-1.398-3.125-3.125-3.125zM43.75 43.75h-37.5v-37.5h28.125v31.25h3.125v-25h6.25v31.25z" fill="#202020" />
</g>
<g transform="translate(66 0)">
	<path d="M13.393 24.107v-12.5q0-0.391-0.251-0.642t-0.642-0.251-0.642 0.251-0.251 0.642v12.5q0 0.391 0.251 0.642t0.642 0.251 0.642-0.251 0.251-0.642zM32.143 33.929q0 0.725-0.53 1.256t-1.256 0.53h-11.97l-1.423 13.477q-0.056 0.335-0.293 0.572t-0.572 0.237h-0.028q-0.753 0-0.893-0.753l-2.121-13.532h-11.272q-0.725 0-1.256-0.53t-0.53-1.256q0-3.432 2.19-6.18t4.953-2.748v-14.286q-1.451 0-2.511-1.060t-1.060-2.511 1.060-2.511 2.511-1.060h17.857q1.451 0 2.511 1.060t1.060 2.511-1.060 2.511-2.511 1.060v14.286q2.762 0 4.953 2.748t2.19 6.18z" fill="#202020" />
</g>
<g transform="translate(114 0)">
	<path d="M34.375 0h-18.75l-9.375 6.25v12.5h37.5v-12.5l-9.375-6.25zM31.25 15.625h-3.125v-2.083c0-0.573-0.469-1.042-1.042-1.042h-4.167c-0.573 0-1.042 0.469-1.042 1.042v2.083h-3.125v-5.208c0-0.573 0.469-1.042 1.042-1.042h10.417c0.573 0 1.042 0.469 1.042 1.042v5.208zM6.25 34.375h37.5v-12.5h-37.5v12.5zM18.75 26.042c0-0.573 0.469-1.042 1.042-1.042h10.417c0.573 0 1.042 0.469 1.042 1.042v5.208h-3.125v-2.083c0-0.573-0.469-1.042-1.042-1.042h-4.167c-0.573 0-1.042 0.469-1.042 1.042v2.083h-3.125v-5.208zM6.25 50h37.5v-12.5h-37.5v12.5zM18.75 41.667c0-0.573 0.469-1.042 1.042-1.042h10.417c0.573 0 1.042 0.469 1.042 1.042v5.208h-3.125v-2.083c0-0.573-0.469-1.042-1.042-1.042h-4.167c-0.573 0-1.042 0.469-1.042 1.042v2.083h-3.125v-5.208z" fill="#202020" />
</g>
<g transform="translate(180 0)">
	<path d="M43.872 0l3.283 27.908-3.686 0.434-2.932-24.924h-31.075l-2.932 24.924-3.686-0.434 3.283-27.908zM12.5 6.25h25v3.125h-25zM12.5 12.5h25v3.125h-25zM12.5 18.75h25v3.125h-25zM12.5 25h25v3.125h-25zM48.438 31.25h-46.875c-0.859 0-1.34 0.667-1.068 1.482l5.262 15.785c0.272 0.815 1.197 1.482 2.057 1.482h34.375c0.859 0 1.785-0.667 2.057-1.482l5.262-15.785c0.272-0.815-0.209-1.482-1.068-1.482zM31.25 37.5h-12.5v-3.125h12.5v3.125z" fill="#202020" />
</g>
<g transform="translate(246 0)">
	<path d="M34.375 9.375h-18.75l-15.625 18.75v12.5c0 1.726 1.399 3.125 3.125 3.125h43.75c1.726 0 3.125-1.399 3.125-3.125v-12.5l-15.625-18.75zM31.25 34.375h-12.5l-3.125-3.125h18.75l-3.125 3.125zM4.068 28.125l13.021-15.625h15.823l13.021 15.625h-41.864zM13.914 18.75h22.171l-2.604-3.125h-16.963zM8.706 25h32.588l-2.604-3.125h-27.38z" fill="#202020" />
</g>
<g transform="translate(312 0)">
	<path d="M34.375 9.375h-18.75l-15.625 18.75v12.5c0 1.726 1.399 3.125 3.125 3.125h43.75c1.726 0 3.125-1.399 3.125-3.125v-12.5l-15.625-18.75zM37.5 28.125l-6.25 6.25h-12.5l-6.25-6.25h-8.432l13.021-15.625h15.823l13.021 15.625h-8.432z" fill="#202020" />
</g>
</svg>
