<?xml version="1.0" encoding="utf-8"?>
<!-- Generated by IcoMoon.io -->
<!DOCTYPE svg PUBLIC "-//W3C//DTD SVG 1.1//EN" "http://www.w3.org/Graphics/SVG/1.1/DTD/svg11.dtd">
<svg version="1.1" xmlns="http://www.w3.org/2000/svg" xmlns:xlink="http://www.w3.org/1999/xlink" width="50" height="50" viewBox="0 0 50 50">
	<path d="M34.375 0h-18.75l-9.375 6.25v12.5h37.5v-12.5l-9.375-6.25zM31.25 15.625h-3.125v-2.083c0-0.573-0.469-1.042-1.042-1.042h-4.167c-0.573 0-1.042 0.469-1.042 1.042v2.083h-3.125v-5.208c0-0.573 0.469-1.042 1.042-1.042h10.417c0.573 0 1.042 0.469 1.042 1.042v5.208zM6.25 34.375h37.5v-12.5h-37.5v12.5zM18.75 26.042c0-0.573 0.469-1.042 1.042-1.042h10.417c0.573 0 1.042 0.469 1.042 1.042v5.208h-3.125v-2.083c0-0.573-0.469-1.042-1.042-1.042h-4.167c-0.573 0-1.042 0.469-1.042 1.042v2.083h-3.125v-5.208zM6.25 50h37.5v-12.5h-37.5v12.5zM18.75 41.667c0-0.573 0.469-1.042 1.042-1.042h10.417c0.573 0 1.042 0.469 1.042 1.042v5.208h-3.125v-2.083c0-0.573-0.469-1.042-1.042-1.042h-4.167c-0.573 0-1.042 0.469-1.042 1.042v2.083h-3.125v-5.208z" fill="#202020" />
</svg>
