<?xml version="1.0" encoding="utf-8"?>
<!-- Generated by IcoMoon.io -->
<!DOCTYPE svg PUBLIC "-//W3C//DTD SVG 1.1//EN" "http://www.w3.org/Graphics/SVG/1.1/DTD/svg11.dtd">
<svg version="1.1" xmlns="http://www.w3.org/2000/svg" xmlns:xlink="http://www.w3.org/1999/xlink" width="50" height="50" viewBox="0 0 50 50">
	<path d="M43.872 0l3.283 27.908-3.686 0.434-2.932-24.924h-31.075l-2.932 24.924-3.686-0.434 3.283-27.908zM12.5 6.25h25v3.125h-25zM12.5 12.5h25v3.125h-25zM12.5 18.75h25v3.125h-25zM12.5 25h25v3.125h-25zM48.438 31.25h-46.875c-0.859 0-1.34 0.667-1.068 1.482l5.262 15.785c0.272 0.815 1.197 1.482 2.057 1.482h34.375c0.859 0 1.785-0.667 2.057-1.482l5.262-15.785c0.272-0.815-0.209-1.482-1.068-1.482zM31.25 37.5h-12.5v-3.125h12.5v3.125z" fill="#202020" />
</svg>
