<?xml version="1.0" encoding="utf-8"?>
<!-- Generated by IcoMoon.io -->
<!DOCTYPE svg PUBLIC "-//W3C//DTD SVG 1.1//EN" "http://www.w3.org/Graphics/SVG/1.1/DTD/svg11.dtd">
<svg version="1.1" xmlns="http://www.w3.org/2000/svg" xmlns:xlink="http://www.w3.org/1999/xlink" width="32" height="50" viewBox="0 0 32 50">
	<path d="M13.393 24.107v-12.5q0-0.391-0.251-0.642t-0.642-0.251-0.642 0.251-0.251 0.642v12.5q0 0.391 0.251 0.642t0.642 0.251 0.642-0.251 0.251-0.642zM32.143 33.929q0 0.725-0.53 1.256t-1.256 0.53h-11.97l-1.423 13.477q-0.056 0.335-0.293 0.572t-0.572 0.237h-0.028q-0.753 0-0.893-0.753l-2.121-13.532h-11.272q-0.725 0-1.256-0.53t-0.53-1.256q0-3.432 2.19-6.18t4.953-2.748v-14.286q-1.451 0-2.511-1.060t-1.060-2.511 1.060-2.511 2.511-1.060h17.857q1.451 0 2.511 1.060t1.060 2.511-1.060 2.511-2.511 1.060v14.286q2.762 0 4.953 2.748t2.19 6.18z" fill="#202020" />
</svg>
